<svg fill="none" height="512" viewBox="0 0 60 60" width="512" xmlns="http://www.w3.org/2000/svg"><path d="m49 16h-10v-6c0-2.209-1.791-4-4-4h-10c-2.209 0-4 1.791-4 4v6h-10c-3.313 0-6 2.687-6 6v26c0 3.313 2.687 6 6 6h38c3.313 0 6-2.687 6-6v-26c0-3.313-2.687-6-6-6zm-24-6h10v6h-10zm5 23c3.859 0 7 2.691 7 6 0 2.713-2.112 5.008-5 5.747v2.253h-4v-2.253c-2.888-.739-5-3.034-5-5.747h4c0 1.065 1.402 2 3 2s3-.935 3-2-1.402-2-3-2c-3.859 0-7-2.691-7-6 0-2.713 2.112-5.008 5-5.747v-2.253h4v2.253c2.888.739 5 3.034 5 5.747h-4c0-1.065-1.402-2-3-2s-3 .935-3 2 1.402 2 3 2z" fill="rgb(0,0,0)"/></svg>