<svg id="Layer_1" enable-background="new 0 0 100 100" viewBox="0 0 100 100" xmlns="http://www.w3.org/2000/svg"><path d="m93.1497803 97.5h-86.2995582c-2.0561757.000412-3.7346714-1.644516-3.7757943-3.7002792v-87.5229164c-.0005577-2.0853138 1.689471-3.7762465 3.7747843-3.7768042 2.0853143-.0005579 3.7762465 1.6894705 3.7768044 3.7747843v.0020199 83.6716056h82.5237656c2.0853119 0 3.775795 1.6904831 3.775795 3.775795s-1.6904849 3.775795-3.7757968 3.775795z"/><path d="m94.6752014 36.4076424-1.8878937-10.5722218c-.3438187-1.8535061-2.1251068-3.0773468-3.9786072-2.7335262-.0892334.0165501-.1777649.0366554-.2653885.0602627l-10.4362946 2.8544998c-1.8100586.4963036-2.875061 2.3659744-2.3787537 4.1760273.4963074 1.810051 2.3659744 2.8750572 4.1760254 2.3787498l1.5103226-.4077835-11.4935225 16.8551483-7.8385468-5.4069366c-1.7276268-1.17136-4.0771294-.7257652-5.2559052.9968071l-11.11594 16.2057113-8.4728813-5.7845154c-.8282928-.5578613-1.8420639-.7692871-2.8242989-.5890236-.9870644.1892967-1.8572922.7658195-2.4165039 1.6009331l-13.0793514 19.1810341c-1.2466946 1.6716156-.9022331 4.0373688.7693787 5.2840652 1.6716137 1.2466965 4.0373669.9022293 5.2840614-.7693787.0652752-.0875244.1267242-.1778336.1841717-.2706909l10.9498024-16.0697823 8.4728851 5.7845116c.828289.5578613 1.8420601.7692871 2.824295.5890274.9994583-.1981812 1.8763962-.7918854 2.4316101-1.6462402l11.0404243-16.145298 7.9140625 5.4069328c1.7294312 1.1626472 4.0722656.7183151 5.2559052-.9968071l13.7136841-20.1174316.256752 1.389492c.2998657 1.6668587 1.7813339 2.8584785 3.473732 2.7940865h.4682007c1.8467026-.3346519 3.0724716-2.1029854 2.7378159-3.9496918-.0059281-.0327453-.012352-.0654029-.0192414-.0979613z"/></svg>