<svg height="512" viewBox="0 0 256 256" width="512" xmlns="http://www.w3.org/2000/svg"><g transform="matrix(.72 0 0 .72 128 128)"><g fill="#E6B57A" stroke-miterlimit="10" stroke-width="0" transform="matrix(3.89 0 0 3.89 -175.05 -175.05)"><path d="m89.175 34.019c.132-.213.254-.432.348-.663.005-.013.007-.027.012-.04.205-.519.319-1.076.319-1.651 0-.576-.114-1.134-.32-1.653-.005-.012-.006-.024-.011-.036-.094-.232-.217-.452-.35-.666-.023-.038-.038-.079-.062-.117-.165-.249-.355-.483-.571-.699l-3.587-3.587c-.094-.094-.206-.167-.326-.217-.243-.1-.516-.099-.758 0-.091.038-.17.101-.247.164-.024.02-.055.029-.077.051l-.259.258c-.903.901-2.328 1.017-3.245.259-.522-.431-.826-1.035-.858-1.703-.032-.659.218-1.305.684-1.771l.359-.359c.187-.187.292-.44.292-.705 0-.264-.105-.518-.292-.705l-11.684-11.683s-.001 0-.001-.001l-1.175-1.175c-3.879-3.879-9.037-6.016-14.523-6.016s-10.644 2.138-14.523 6.017c-.305.304-.379.769-.185 1.154.194.384.618.603 1.038.536 3.886-.585 8.272 1.505 11.179 5.325 2.226 2.926 3.003 6.131 2.192 8.749l-.238.238c-.187.187-.292.44-.292.705 0 .264.105.518.292.705l.192.192 1.64 1.64-16.937 16.936-1.832-1.832c-.389-.389-1.02-.389-1.409 0l-31.076 31.076c-3.644 3.644-3.643 9.573 0 13.218 1.822 1.822 4.215 2.732 6.608 2.732s4.787-.91 6.608-2.732l13.26-13.26c.176-.176.28-.412.291-.66.138-3.059 1.661-6.258 4.178-8.775s5.716-4.04 8.775-4.178c.249-.012.484-.115.66-.291l3.913-3.913c.187-.187.292-.44.292-.705s-.105-.518-.292-.705l-2.102-2.101 16.937-16.936 1.978 1.978c.195.195.45.292.705.292s.51-.097.705-.292l1.265-1.265c.902-.902 2.327-1.018 3.245-.259.522.431.826 1.035.858 1.703.032.659-.218 1.305-.684 1.771l-.359.359c-.187.187-.292.44-.292.705s0 0 0 0c0 .264.105.518.292.705l3.588 3.587c.847.847 1.974 1.314 3.172 1.314s2.324-.467 3.171-1.314l8.884-8.884c.216-.216.406-.45.571-.699.025-.039.04-.082.064-.121z"/><path d="m72.092 57.279c-.176-.176-.412-.28-.66-.291-3.463-.155-7.081-1.877-9.926-4.723-2.304-2.304-3.854-5.114-4.449-7.938l-7.068 7.068c.629.79.969 1.762.969 2.786 0 1.198-.466 2.324-1.314 3.171l-1.085 1.085c1.382.765 2.694 1.746 3.862 2.914 2.845 2.846 4.567 6.465 4.723 9.927.012.248.115.484.291.66l14.877 14.877c1.957 1.958 4.561 3.036 7.329 3.036s5.371-1.078 7.328-3.036c4.041-4.041 4.041-10.617 0-14.658z"/><path d="m5.351 14.165c.123.219.323.383.561.46l5.822 1.891 21.591 21.591c1.268-.395 2.674-.228 3.812.524l2.99-2.99-23.76-23.76-1.891-5.822c-.077-.238-.242-.438-.46-.561l-9.307-5.222c-.389-.219-.876-.15-1.192.164l-3.225 3.225c-.316.316-.383.803-.164 1.192z"/></g></g></svg>