<svg fill="none" height="24" viewBox="0 0 24 24" width="24" xmlns="http://www.w3.org/2000/svg"><path d="m12 0c-4.687 0-8.5 3.813-8.5 8.5 0 8.218 7.839 15.09 8.173 15.378.094.081.21.122.327.122s.233-.041.327-.122c.333-.289 8.173-7.161 8.173-15.378 0-4.687-3.813-8.5-8.5-8.5zm4.462 8.691c-.077.187-.26.309-.462.309h-.5v3.5c0 .276-.224.5-.5.5h-2c-.276 0-.5-.224-.5-.5v-2.5h-1v2.5c0 .276-.224.5-.5.5h-2c-.276 0-.5-.224-.5-.5v-3.5h-.5c-.202 0-.385-.122-.462-.309-.078-.187-.035-.402.108-.545l4-4c.195-.195.512-.195.707 0l4 4c.144.144.187.358.109.545z" fill="rgb(0,0,0)"/></svg>