<svg fill="#E6B57A" id="Layer_1" enable-background="new 0 0 512 512" height="512" viewBox="0 0 512 512" width="512" xmlns="http://www.w3.org/2000/svg"><g><path d="m278.1 309.25v-52.12h-98.6v160.87h82.14c-3.16-11.45-4.85-23.5-4.85-35.93 0-26.79 7.83-51.78 21.31-72.82z"/><path d="m294.1 249.12v39.73c23.37-24.58 55.85-40.42 91.98-42.09v-60.53l-157.26-114.67-157.3 114.68v231.76h91.98v-168.88c0-4.42 3.58-8 8-8h114.6c4.42 0 8 3.58 8 8z"/><path d="m151.38 46.21h1.3l4.39-3.2v-17.13h-76.1v20.33h5.69z"/><path d="m130.74 62.21h-36.08v26.3z"/><path d="m233.53 55.2 204.4 149.04 19.67-26.92-228.78-166.82-228.82 166.82 19.67 26.92 204.43-149.04c2.81-2.05 6.62-2.05 9.43 0z"/><path d="m435.85 345.67c-.01 0-.01 0 0 0-2.18 0-4.23.84-5.76 2.37l-45.68 45.26c-3.1 3.07-8.08 3.09-11.2.06l-18.52-17.98c-3.24-3.15-8.46-3.08-11.63.16-1.51 1.55-2.33 3.62-2.3 5.81.03 2.18.91 4.23 2.49 5.75l29.93 29.05c3.2 3.1 8.35 3.08 11.47-.06l56.99-56.46c1.54-1.53 2.4-3.58 2.41-5.76 0-2.17-.84-4.22-2.38-5.77-1.56-1.57-3.63-2.43-5.82-2.43z"/><path d="m392.41 262.61c-65.96 0-119.62 53.59-119.62 119.46 0 65.85 53.66 119.43 119.62 119.43 65.94 0 119.59-53.58 119.59-119.43 0-65.87-53.65-119.46-119.59-119.46zm60.49 108.37-56.96 56.43c-4.66 4.67-10.84 7.02-17.03 7.02-6.09 0-12.19-2.26-16.87-6.81l-29.93-29.05c-4.64-4.5-7.25-10.54-7.34-17s2.34-12.57 6.85-17.21c9.32-9.54 24.67-9.74 34.22-.47l12.89 12.52 40.08-39.71c4.54-4.53 10.61-7.03 17.06-7.03 6.47.01 12.56 2.54 17.13 7.12 4.56 4.58 7.07 10.65 7.05 17.1-.02 6.46-2.56 12.53-7.15 17.09z"/></g></svg>