<svg height="512" viewBox="0 0 48 48" width="512" xmlns="http://www.w3.org/2000/svg"><g id="chart_rise_in_website" data-name="chart rise in website"><path d="m23 24h2v10h-2z"/><path d="m31 20h2v14h-2z"/><path d="m1 46h46v-36h-46zm28-27a1 1 0 0 1 1-1h4a1 1 0 0 1 1 1v16a1 1 0 0 1 -1 1h-4a1 1 0 0 1 -1-1zm-8 4a1 1 0 0 1 1-1h4a1 1 0 0 1 1 1v12a1 1 0 0 1 -1 1h-4a1 1 0 0 1 -1-1zm-7 3h4a1 1 0 0 1 1 1v8a1 1 0 0 1 -1 1h-4a1 1 0 0 1 -1-1v-8a1 1 0 0 1 1-1zm-6.71-9.71c3.06-3.06 2.34-3.08 5.42 0a1 1 0 0 1 -1.42 1.42c-.43-.44-.29-2.87-.29 20.29 29.55 0 26.76.16 26.29-.29a1 1 0 0 1 1.42-1.42l2 2a1 1 0 0 1 0 1.42c-2.12 2.12-2.16 2.29-2.71 2.29a1 1 0 0 1 -.71-1.71c.43-.42 3.43-.29-27.29-.29a1 1 0 0 1 -1-1c0-24.18.16-21.76-.29-21.29a1 1 0 0 1 -1.42-1.42z"/><path d="m15 28h2v6h-2z"/><path d="m45 2h-42a2 2 0 0 0 -2 2v4h46v-4a2 2 0 0 0 -2-2zm-40 4a1 1 0 0 1 0-2 1 1 0 0 1 0 2zm4 0a1 1 0 0 1 0-2 1 1 0 0 1 0 2zm4 0a1 1 0 0 1 0-2 1 1 0 0 1 0 2z"/></g></svg>